# xmcd
# 
# Track frame offsets:
#	150
#	12665
#	25865
#	39905
#	52902
#	67835
#	82535
#	96450
#	109540
#	123467
#	137095
#	151427
#	163077
#	176502
#	189145
#	201782
#	215445
#
# Disc length: 3039 seconds
#
# Revision: 1
# Processed by: cddbd v1.4PL0 Copyright (c) Steve Scherf et al.
# Submitted via: Audio-CD-Archiv 2.10.446
#
DISCID=d50bdd11
DTITLE=Sonny Scott - 1933
DYEAR=1900
DGENRE=blues
TTITLE0=Coal Mountain Blues
TTITLE1=Red Rooster Blues
TTITLE2=Man, Man, Man
TTITLE3=No Good Biddie
TTITLE4=Red Cross Blues
TTITLE5=Black Horse Blues
TTITLE6=Firewood Man
TTITLE7=Nacked Man Blues
TTITLE8=Highway No. 2 Blues
TTITLE9=Try Me Man Blues
TTITLE10=Hard Luck Man
TTITLE11=Early This Morning
TTITLE12=Working Man's Moan
TTITLE13=Rolling Water
TTITLE14=Frisco Blues
TTITLE15=Red Cross Blues No. 2
TTITLE16=Overall Blues
EXTD=
EXTT0=
EXTT1=
EXTT2=
EXTT3=
EXTT4=
EXTT5=
EXTT6=
EXTT7=
EXTT8=
EXTT9=
EXTT10=
EXTT11=
EXTT12=
EXTT13=
EXTT14=
EXTT15=
EXTT16=
PLAYORDER=
